# xmcd
#
# Track frame offsets: 
#        150
#        14590
#        31915
#        42420
#        55740
#        70925
#        89120
#        103127
#        117197
#        149202
#        170035
#        194240
#        210352
#        224227
#        241152
#        253522
#        280687
#        294795
#        309920
#
# Disc length: 4349 seconds
#
# Revision: 0
# Processed by: cddbd v1.5.2PL0 Copyright (c) Steve Scherf et al.
# Submitted via: ExactAudioCopy v0.95b4
#
DISCID=2c10fb13
DTITLE=Various Artist - Billboard 1969
DYEAR=2000
DGENRE=Other
TTITLE0=The Beatles - Get Back
TTITLE1=Bee Gees - Melody Fair
TTITLE2=C.C. Revival - Bad Moon Rising
TTITLE3=The Hollies - Sorry Suzanne
TTITLE4=Elvis Presley - Suspicious Minds
TTITLE5=Elton John - Your Song
TTITLE6=The Rolling Stones - Honky Tonk Women
TTITLE7=George Harrison - Here Comes the Sun
TTITLE8=The Doors - Light My Fire
TTITLE9=Frank Sinatra - My Way
TTITLE10=Roberta Flack - The First Time Ever I Saw Your Face
TTITLE11=The Beatles - Don't Let Me Down
TTITLE12=Stevie Wonder - Yester-me, Yester-you, Yesterday
TTITLE13=Grand Funk - Time Machine
TTITLE14=Led Zeppelin - Good Times, Bad Times
TTITLE15=Deep Purple - Shield
TTITLE16=Bobbie Gentry - I'll Never Fall in Love Again
TTITLE17=Demis Roussos - Mammy Blue
TTITLE18=Joe South - Games People Play
EXTD=
EXTT0=
EXTT1=
EXTT2=
EXTT3=
EXTT4=
EXTT5=
EXTT6=
EXTT7=
EXTT8=
EXTT9=
EXTT10=
EXTT11=
EXTT12=
EXTT13=
EXTT14=
EXTT15=
EXTT16=
EXTT17=
EXTT18=
PLAYORDER=
